HIERARCHY
ROOT Hips
{
    OFFSET 0.0 0.0 0.0
    CHANNELS 6 Xposition Yposition Zposition Zrotation Xrotation Yrotation
    JOINT Spine
    {
        OFFSET 0.0 5.0 0.0
        CHANNELS 3 Zrotation Xrotation Yrotation
        JOINT Chest
        {
            OFFSET 0.0 5.0 0.0
            CHANNELS 3 Zrotation Xrotation Yrotation
            JOINT Neck
            {
                OFFSET 0.0 8.0 0.0
                CHANNELS 3 Zrotation Xrotation Yrotation
                JOINT Head
                {
                    OFFSET 0.0 5.0 0.0
                    CHANNELS 3 Zrotation Xrotation Yrotation
                    End Site
                    {
                        OFFSET 0.0 3.0 0.0
                    }
                }
            }
            JOINT LeftShoulder
            {
                OFFSET -5.0 0.0 0.0
                CHANNELS 3 Zrotation Xrotation Yrotation
                JOINT LeftArm
                {
                    OFFSET 0.0 -10.0 0.0
                    CHANNELS 3 Zrotation Xrotation Yrotation
                    JOINT LeftForeArm
                    {
                        OFFSET 0.0 -10.0 0.0
                        CHANNELS 3 Zrotation Xrotation Yrotation
                        End Site
                        {
                            OFFSET 0.0 -3.0 0.0
                        }
                    }
                }
            }
        }
    }
}

MOTION
Frames: 14
Frame Time: 0.033333
960.000000 445.000000 81.494963 0.000000 0.000000 0.000000 0.000000 0.000000 0.000000 23.025492 5.102152 0.000000 180.000000 -14.447006 0.000000 21.801409 1.782911 -0.000000 158.198591 -0.079330 30.000000 15.945396 2.231436 0.000000 18.000000 -0.721774 0.000000
1691.525230 140.756605 120.103507 0.000000 0.000000 0.000000 0.000000 0.000000 0.000000 -163.376529 -6.711057 4.973798 16.623471 10.132513 4.973798 -171.853121 -3.423807 3.759997 99.744051 41.459415 29.763441 -171.126653 -4.106595 -3.759997 0.673538 0.388541 0.313953
1636.048050 128.802021 120.295140 0.000000 0.000000 0.000000 0.000000 0.000000 0.000000 157.904128 -19.917301 9.635073 -22.095872 20.835733 9.635073 -171.936471 -4.297184 7.460697 -143.675701 -2.638978 29.057495 -173.500805 -4.012832 -7.460697 0.570999 0.479093 0.626666
1578.156967 80.474526 106.836232 0.000000 0.000000 0.000000 0.000000 0.000000 0.000000 -139.519796 5.453898 13.690942 40.480204 -12.429867 13.690942 -174.507724 -3.378596 11.043737 119.111399 -1.035604 27.893295 -173.607258 -4.273466 -11.043737 0.461920 0.550853 0.936907
960.418757 444.998421 111.143975 0.000000 0.000000 0.000000 0.000000 0.000000 0.000000 25.077893 21.552115 16.886559 180.000000 3.950593 16.886559 23.861935 -2.176088 14.452610 156.138065 1.396713 26.289200 17.903699 0.967097 -14.452610 18.000000 0.168422 1.243449
960.523360 444.997533 131.764202 0.000000 0.000000 0.000000 0.000000 0.000000 0.000000 25.638906 6.122546 19.021130 180.000000 -15.270235 19.021130 24.425035 0.218361 17.633558 155.574965 -10.591598 24.270510 18.452907 0.084495 -17.633558 18.000000 -0.393507 1.545085
960.627905 444.996447 119.335847 0.000000 0.000000 0.000000 0.000000 0.000000 0.000000 26.219073 -18.793293 19.960535 180.000000 8.855381 19.960535 25.006291 -8.508635 20.536413 154.993709 8.100230 21.869059 19.024920 -3.477754 -20.536413 18.000000 0.651325 1.840623
1126.242828 420.359820 153.707960 0.000000 0.000000 0.000000 0.000000 0.000000 0.000000 31.410514 0.048150 19.645745 -148.589486 -2.386671 19.645745 32.280463 3.053216 23.115397 -131.603972 2.729938 19.122720 45.585331 -2.183255 -23.115397 -13.449727 -0.015043 2.128896
1257.895088 650.549197 138.032041 0.000000 0.000000 0.000000 0.000000 0.000000 0.000000 25.073180 -1.376884 18.096541 -154.926820 -6.943580 18.096541 46.260945 13.702838 25.329838 -154.651428 -5.248968 16.074804 27.339487 5.428766 -25.329838 -13.619892 0.032823 2.408768
960.941083 444.992008 146.382766 0.000000 0.000000 0.000000 0.000000 0.000000 0.000000 28.072001 -19.367864 15.410265 180.000000 4.652793 15.410265 26.849221 -8.735763 27.144812 153.150779 -2.935976 12.773379 20.864045 9.336357 -27.144812 18.000000 -0.612899 2.679134
1163.815842 547.748709 138.305364 0.000000 0.000000 0.000000 0.000000 0.000000 0.000000 117.162728 6.623153 11.755705 -62.837272 -1.822391 11.755705 102.363764 0.328413 28.531695 -47.376450 2.513239 9.270510 104.768601 -3.711835 -28.531695 -6.003489 -0.238037 2.938926
961.149372 444.988063 143.866991 0.000000 0.000000 0.000000 0.000000 0.000000 0.000000 29.395983 9.465117 7.362491 180.000000 3.116665 7.362491 28.146217 -0.340800 29.468618 151.853783 -3.952624 5.621439 22.170006 -2.134673 -29.468618 18.000000 -0.353020 3.187120
1136.717377 590.104480 143.191292 0.000000 0.000000 0.000000 0.000000 0.000000 0.000000 115.752126 0.194670 2.506665 -64.247874 -9.147835 2.506665 73.638146 3.933959 29.940802 -21.842452 -2.866269 1.883716 75.369282 -4.546578 -29.940802 -6.767207 0.179143 3.422736
1163.079758 634.077559 141.012826 0.000000 0.000000 0.000000 0.000000 0.000000 0.000000 132.174340 -6.096066 -2.506665 -47.825660 3.609060 -2.506665 94.255711 2.910595 29.940802 -149.364979 -6.443094 -1.883716 30.021641 5.388272 -29.940802 -5.096180 0.760515 3.644843
